<svg width="120" height="28" viewBox="0 0 120 28" fill="none" xmlns="http://www.w3.org/2000/svg">
<g clip-path="url(#clip0_2412_13329)">
<path fill-rule="evenodd" clip-rule="evenodd" d="M13.9298 0.890529C6.76362 0.890529 0.954287 6.69166 0.954287 13.8477C0.954287 21.0038 6.76362 26.8049 13.9298 26.8049C21.096 26.8049 26.9053 21.0038 26.9053 13.8477C26.9053 6.69166 21.096 0.890529 13.9298 0.890529ZM0.0625 13.8477C0.0625 6.19983 6.2711 0 13.9298 0C21.5885 0 27.7971 6.19983 27.7971 13.8477C27.7971 21.4956 21.5885 27.6954 13.9298 27.6954C6.2711 27.6954 0.0625 21.4956 0.0625 13.8477ZM5.11741 12.9559C5.11741 7.60283 9.46303 3.26334 14.8236 3.26334C20.1842 3.26334 24.5298 7.60283 24.5298 12.9559C24.5298 18.3089 20.1842 22.6484 14.8236 22.6484C9.46303 22.6484 5.11741 18.3089 5.11741 12.9559ZM14.8236 2.0166C8.7735 2.0166 3.86891 6.91427 3.86891 12.9559C3.86891 18.9974 8.7735 23.8951 14.8236 23.8951C20.8737 23.8951 25.7783 18.9974 25.7783 12.9559C25.7783 6.91427 20.8737 2.0166 14.8236 2.0166ZM15.2322 6.30531C11.8782 6.30531 9.15915 9.02048 9.15915 12.3698C9.15915 15.7191 11.8782 18.4343 15.2322 18.4343C18.5863 18.4343 21.3053 15.7191 21.3053 12.3698C21.3053 9.02048 18.5863 6.30531 15.2322 6.30531ZM7.37557 12.3698C7.37557 8.03683 10.8931 4.52425 15.2322 4.52425C19.5713 4.52425 23.0889 8.03683 23.0889 12.3698C23.0889 16.7028 19.5713 20.2154 15.2322 20.2154C10.8931 20.2154 7.37557 16.7028 7.37557 12.3698ZM15.949 15.924C18.3062 15.924 20.2171 14.0158 20.2171 11.662C20.2171 9.3081 18.3062 7.3999 15.949 7.3999C13.5918 7.3999 11.6809 9.3081 11.6809 11.662C11.6809 14.0158 13.5918 15.924 15.949 15.924ZM88.0793 7.0798C87.9117 6.92235 87.7788 6.73175 87.6892 6.52015C87.5995 6.30855 87.555 6.08061 87.5585 5.85087C87.5536 5.62277 87.5975 5.39626 87.6874 5.18648C87.7772 4.9767 87.9108 4.78848 88.0793 4.63441C88.421 4.30817 88.8784 4.13071 89.351 4.14105C89.5788 4.13673 89.8051 4.17818 90.0165 4.26294C90.2279 4.34769 90.4201 4.47402 90.5817 4.63441C90.7465 4.79071 90.8768 4.97963 90.9643 5.18909C91.0518 5.39855 91.0947 5.62395 91.09 5.85087C91.0905 6.07904 91.0458 6.30507 90.9586 6.51597C90.8713 6.72686 90.7433 6.91848 90.5817 7.07983C90.4201 7.24117 90.2282 7.36907 90.017 7.45617C89.8058 7.54327 89.5795 7.58787 89.351 7.5874C89.1158 7.59243 88.8819 7.55008 88.6634 7.46286C88.4449 7.37565 88.2463 7.24537 88.0793 7.0798ZM88.0133 9.85825H90.6352V23.6703H88.0133V9.85825ZM34.9497 6.52054C35.0397 6.73214 35.1729 6.92267 35.3408 7.07996C35.5077 7.24553 35.7064 7.37581 35.9249 7.46303C36.1434 7.55024 36.3772 7.59259 36.6125 7.58756C36.841 7.58803 37.0673 7.54343 37.2785 7.45633C37.4897 7.36923 37.6816 7.24134 37.8432 7.07999C38.0047 6.91865 38.1328 6.72703 38.22 6.51613C38.3073 6.30523 38.3519 6.07921 38.3515 5.85103C38.3561 5.62411 38.3133 5.39872 38.2258 5.18926C38.1383 4.97979 38.0079 4.79087 37.8431 4.63457C37.6816 4.47418 37.4894 4.34785 37.278 4.2631C37.0666 4.17835 36.8403 4.1369 36.6125 4.14122C36.1399 4.13088 35.6825 4.30833 35.3408 4.63457C35.172 4.78849 35.038 4.97663 34.9479 5.18642C34.8578 5.39621 34.8135 5.6228 34.8182 5.85103C34.8149 6.0809 34.8597 6.30893 34.9497 6.52054ZM37.8966 9.85841H35.2748L35.273 23.6705H37.8966V9.85841ZM51.6997 15.121C51.6985 13.3221 51.239 11.9418 50.321 10.98C49.4031 10.0182 48.1682 9.53972 46.6165 9.54447C44.6724 9.54447 43.2723 10.2836 42.4162 11.7619V9.85794H39.9281V23.6807H42.6035V15.7461C42.6035 14.4816 42.9067 13.515 43.5131 12.8466C44.1195 12.1781 44.9221 11.8438 45.9209 11.8438C46.9197 11.8498 47.6867 12.1703 48.2217 12.8056C48.7568 13.4408 49.0243 14.3907 49.0243 15.6553V23.67H51.6997V15.121ZM54.6693 22.8281C53.6883 22.054 53.0938 20.9901 52.8857 19.6365H55.5076C55.8286 21.2038 56.979 21.9875 58.9588 21.9875C59.9397 21.9875 60.693 21.8135 61.2186 21.4656C61.4636 21.3181 61.6655 21.1088 61.8039 20.8587C61.9423 20.6086 62.0123 20.3265 62.0069 20.0408C62.0186 19.8066 61.9806 19.5726 61.8955 19.354C61.8104 19.1355 61.68 18.9374 61.5129 18.7727C61.1823 18.4616 60.6252 18.2342 59.8416 18.0905L56.8988 17.5562C55.6146 17.3247 54.6633 16.8931 54.045 16.2614C53.4267 15.6297 53.1194 14.7885 53.1229 13.7376C53.1185 12.9873 53.3377 12.2527 53.7525 11.6271C54.2096 10.9538 54.8502 10.4254 55.5985 10.1043C56.5142 9.70931 57.505 9.51788 58.5022 9.54324C60.2323 9.54324 61.5997 9.94398 62.6044 10.7455C63.6091 11.5469 64.2037 12.669 64.388 14.1117H61.7322C61.4647 12.4018 60.3678 11.5469 58.4415 11.5469C57.5676 11.5469 56.8851 11.7387 56.394 12.1222C56.1667 12.284 55.9813 12.4978 55.8535 12.7456C55.7257 12.9935 55.6591 13.2683 55.6592 13.5471C55.6477 13.7652 55.6837 13.9832 55.7646 14.1862C55.8456 14.3891 55.9697 14.5721 56.1282 14.7226C56.4398 15.0075 56.9796 15.2212 57.7477 15.3637L60.6371 15.8713C62.0283 16.1088 63.039 16.5582 63.6692 17.2196C64.2994 17.881 64.6163 18.74 64.6198 19.7968C64.6338 20.3774 64.5121 20.9534 64.2644 21.4789C64.0167 22.0045 63.6499 22.4652 63.193 22.8246C62.2417 23.6082 60.819 24.0001 58.9249 24.0001C57.0688 23.9941 55.6502 23.6035 54.6693 22.8281ZM85.9803 23.6702V5.52832H81.5659L76.456 19.5274L71.346 5.52832H66.9049V23.6702H69.6873V7.90781L75.4661 23.6702H77.4726L83.1979 7.90781V23.6702H85.9803ZM104.44 15.121C104.439 13.3221 103.979 11.9418 103.061 10.98C102.143 10.0182 100.908 9.53972 99.3568 9.54447C97.4127 9.54447 96.0126 10.2836 95.1565 11.7619V9.85794H92.6684V23.6807H95.3437V15.7461C95.3437 14.4816 95.6469 13.515 96.2534 12.8466C96.8598 12.1781 97.6624 11.8438 98.6612 11.8438C99.66 11.8498 100.427 12.1703 100.962 12.8056C101.497 13.4408 101.765 14.3907 101.765 15.6553V23.67H104.44V15.121ZM119.556 4.43457V23.67H117.094V21.0233C116.678 21.9123 116.025 22.67 115.207 23.214C114.364 23.7444 113.382 24.0139 112.386 23.9888C111.291 23.995 110.218 23.6858 109.295 23.0983C108.335 22.4842 107.566 21.6144 107.074 20.587C106.53 19.5005 106.257 18.2271 106.257 16.7666C106.228 15.4445 106.502 14.1333 107.06 12.9338C107.535 11.9086 108.285 11.035 109.227 10.41C110.134 9.81963 111.195 9.50982 112.277 9.51949C114.364 9.51949 115.898 10.321 116.879 11.9239V4.43457H119.556ZM115.771 20.4231C116.511 19.5243 116.88 18.3084 116.88 16.7755C116.897 15.8756 116.719 14.9827 116.359 14.1574C116.057 13.444 115.563 12.8278 114.933 12.3763C114.168 11.8607 113.237 11.6514 112.325 11.79C111.413 11.9286 110.586 12.405 110.01 13.1244C109.297 14.0422 108.94 15.2575 108.94 16.7702C108.94 18.2829 109.31 19.494 110.051 20.4035C110.387 20.8379 110.82 21.1875 111.315 21.4242C111.811 21.6608 112.355 21.7779 112.905 21.766C113.454 21.7787 113.998 21.664 114.495 21.431C114.992 21.198 115.428 20.853 115.769 20.4231H115.771Z" fill="black"/>
</g>
<defs>
<clipPath id="clip0_2412_13329">
<rect width="120" height="28" fill="white"/>
</clipPath>
</defs>
</svg>
