<svg xmlns="http://www.w3.org/2000/svg" width="600" height="600" style="width:100%;height:100%;transform:translate3d(0,0,0);content-visibility:visible"><defs><linearGradient id="k" spreadMethod="pad" gradientUnits="userSpaceOnUse" x1="-25.742" y1="-14.889" x2="25.754" y2="14.863"><stop offset="0%" stop-color="#625CF6"/><stop offset="31%" stop-color="#6743F1"/><stop offset="63%" stop-color="#6B29ED"/><stop offset="81%" stop-color="#6743F1"/><stop offset="100%" stop-color="#625CF6"/></linearGradient><linearGradient id="j" spreadMethod="pad" gradientUnits="userSpaceOnUse" x1="25.765" y1="-14.844" x2="-25.754" y2="14.867"><stop offset="0%" stop-color="#625CF6"/><stop offset="31%" stop-color="#6743F1"/><stop offset="63%" stop-color="#6B29ED"/><stop offset="81%" stop-color="#6743F1"/><stop offset="100%" stop-color="#625CF6"/></linearGradient><linearGradient id="i" spreadMethod="pad" gradientUnits="userSpaceOnUse" x1="-.029" y1="29.737" x2="-.004" y2="-29.734"><stop offset="0%" stop-color="#625CF6"/><stop offset="31%" stop-color="#6743F1"/><stop offset="63%" stop-color="#6B29ED"/><stop offset="81%" stop-color="#6743F1"/><stop offset="100%" stop-color="#625CF6"/></linearGradient><linearGradient id="h" spreadMethod="pad" gradientUnits="userSpaceOnUse" x1="-.029" y1="29.737" x2="-.004" y2="-29.734"><stop offset="0%" stop-color="#625CF6"/><stop offset="31%" stop-color="#6743F1"/><stop offset="63%" stop-color="#6B29ED"/><stop offset="81%" stop-color="#6743F1"/><stop offset="100%" stop-color="#625CF6"/></linearGradient><linearGradient id="g" spreadMethod="pad" gradientUnits="userSpaceOnUse" x1="-11.435" y1="-7.127" x2="19.576" y2="-24.39"><stop offset="0%" stop-color="#B2AEFB"/><stop offset="5%" stop-color="#D9D7FD"/><stop offset="25%" stop-color="#FFF"/></linearGradient><linearGradient id="f" spreadMethod="pad" gradientUnits="userSpaceOnUse" x1="-11.435" y1="-7.127" x2="19.576" y2="-24.39"><stop offset="0%" stop-color="#B2AEFB"/><stop offset="5%" stop-color="#D9D7FD"/><stop offset="25%" stop-color="#FFF"/></linearGradient><linearGradient id="e" spreadMethod="pad" gradientUnits="userSpaceOnUse" x1="-11.435" y1="-7.127" x2="19.576" y2="-24.39"><stop offset="0%" stop-color="#B2AEFB"/><stop offset="5%" stop-color="#D9D7FD"/><stop offset="25%" stop-color="#FFF"/></linearGradient><linearGradient id="d" spreadMethod="pad" gradientUnits="userSpaceOnUse" x1="-218.117" y1="-126.235" x2="218.236" y2="125.934"><stop offset="0%" stop-color="#625CF6"/><stop offset="31%" stop-color="#6743F1"/><stop offset="63%" stop-color="#6B29ED"/><stop offset="81%" stop-color="#6743F1"/><stop offset="100%" stop-color="#625CF6"/></linearGradient><linearGradient id="c" spreadMethod="pad" gradientUnits="userSpaceOnUse" x1="218.378" y1="-125.691" x2="-218.209" y2="126.074"><stop offset="0%" stop-color="#625CF6"/><stop offset="31%" stop-color="#6743F1"/><stop offset="63%" stop-color="#6B29ED"/><stop offset="81%" stop-color="#6743F1"/><stop offset="100%" stop-color="#625CF6"/></linearGradient><linearGradient id="b" spreadMethod="pad" gradientUnits="userSpaceOnUse" x1="-.224" y1="252.091" x2="-.076" y2="-251.995"><stop offset="0%" stop-color="#625CF6"/><stop offset="31%" stop-color="#6743F1"/><stop offset="63%" stop-color="#6B29ED"/><stop offset="81%" stop-color="#6743F1"/><stop offset="100%" stop-color="#625CF6"/></linearGradient><clipPath id="a"><path d="M0 0h600v600H0z"/></clipPath></defs><g clip-path="url(#a)"><path fill="url(#b)" d="m187.162-60.089 31.17-53.98a12 12 0 0 0 0-12l-34.641-60a12.005 12.005 0 0 0-10.39-6l-284.128.12-34.562 59.86 23.38 132.072 309.171-60.072zM41.813-192.251l-31.18-54c-2.14-3.71-6.1-6-10.39-6h-69.28c-2.14 0-4.2.57-5.99 1.61-1.8 1.04-3.32 2.54-4.4 4.39l-31.507 54.569-34.303 59.411 187.05-59.98z" transform="scale(-1.15494) rotate(60 95.06 -354.802)" style="display:block"/><path fill="url(#c)" d="m187.162-60.089 31.17-53.98a12 12 0 0 0 0-12l-34.641-60a12.005 12.005 0 0 0-10.39-6l-284.128.12-34.562 59.86 23.38 132.072 309.171-60.072zM41.813-192.251l-31.18-54c-2.14-3.71-6.1-6-10.39-6h-69.28c-2.14 0-4.2.57-5.99 1.61-1.8 1.04-3.32 2.54-4.4 4.39l-31.507 54.569-34.303 59.411 187.05-59.98z" transform="matrix(1.15494 0 0 1.15494 299.98 299.965)" style="display:block"/><path fill="url(#d)" d="m187.162-60.089 31.17-53.98a12 12 0 0 0 0-12l-34.641-60a12.005 12.005 0 0 0-10.39-6l-284.128.12-34.562 59.86 23.38 132.072 309.171-60.072zM41.813-192.251l-31.18-54c-2.14-3.71-6.1-6-10.39-6h-69.28c-2.14 0-4.2.57-5.99 1.61-1.8 1.04-3.32 2.54-4.4 4.39l-31.507 54.569-34.303 59.411 187.05-59.98z" transform="scale(-1.15494) rotate(-60 -354.797 95.077)" style="display:block"/><path fill="url(#e)" d="m-16.313-14.136 8.16-14.122 4.073 7.054-4.083 7.071 32.663.008-4.102 7.066-32.628-.006-4.083-7.071z" transform="rotate(-120 236.603 63.397) scale(9.7867)" style="display:block"/><path fill="url(#f)" d="m-16.313-14.136 8.16-14.122 4.073 7.054-4.083 7.071 32.663.008-4.102 7.066-32.628-.006-4.083-7.071z" transform="translate(300 300) scale(9.7867)" style="display:block"/><path fill="url(#g)" d="m-16.313-14.136 8.16-14.122 4.073 7.054-4.083 7.071 32.663.008-4.102 7.066-32.628-.006-4.083-7.071z" transform="rotate(120 63.397 236.603) scale(9.7867)" style="display:block"/><path fill="url(#h)" d="M-12.23-7.065-.004 14.124 12.233-7.059l-24.463-.006z" transform="rotate(-120 236.603 63.397) scale(9.7867)" style="display:block"/><path fill="url(#i)" d="m-12.23-7.065 32.628.006.408.706-32.628-.006-.408-.706z" transform="rotate(-120 236.603 63.397) scale(9.7867)" style="display:block"/><path fill="url(#j)" d="m-12.23-7.065 32.628.006.408.706-32.628-.006-.408-.706z" transform="translate(300 300) scale(9.7867)" style="display:block"/><path fill="url(#k)" d="m-12.23-7.065 32.628.006.408.706-32.628-.006-.408-.706z" transform="rotate(120 63.397 236.603) scale(9.7867)" style="display:block"/></g></svg>